<svg width="32" height="33" viewBox="0 0 32 33" fill="none" xmlns="http://www.w3.org/2000/svg">
<rect y="0.202148" width="32" height="32" rx="2" fill="#FFD741"/>
<rect width="16" height="16" transform="translate(8 8.20215)" fill="white" fill-opacity="0.01" style="mix-blend-mode:multiply"/>
<path d="M20.5 18.7021C20.7761 18.7021 21 18.4783 21 18.2021C21 17.926 20.7761 17.7021 20.5 17.7021C20.2239 17.7021 20 17.926 20 18.2021C20 18.4783 20.2239 18.7021 20.5 18.7021Z" fill="#161616"/>
<path d="M17.7071 23.2021H15.5V20.995L18.0169 18.4781C18.0057 18.3866 18.0001 18.2944 18 18.2021C17.9997 17.6958 18.1531 17.2014 18.44 16.7842C18.7268 16.367 19.1336 16.0467 19.6065 15.8657C20.0793 15.6848 20.596 15.6516 21.0881 15.7707C21.5802 15.8898 22.0245 16.1556 22.3623 16.5327C22.7001 16.9099 22.9154 17.3807 22.9797 17.8829C23.0441 18.3851 22.9544 18.895 22.7226 19.3451C22.4908 19.7953 22.1278 20.1644 21.6816 20.4037C21.2354 20.643 20.7271 20.7412 20.2239 20.6853L17.7071 23.2021ZM16.5 22.2021H17.2929L19.896 19.599L20.1657 19.6609C20.4872 19.7375 20.8249 19.707 21.1274 19.5742C21.43 19.4414 21.681 19.2134 21.8422 18.925C22.0034 18.6365 22.066 18.3033 22.0206 17.976C21.9752 17.6487 21.8241 17.3452 21.5905 17.1115C21.3568 16.8779 21.0533 16.7269 20.7259 16.6815C20.3986 16.6361 20.0654 16.6988 19.777 16.86C19.4886 17.0212 19.2606 17.2722 19.1278 17.5748C18.995 17.8774 18.9646 18.2151 19.0413 18.5365L19.1031 18.8061L16.5 21.4093V22.2021Z" fill="#161616"/>
<path d="M12 12.2021H11V16.2021H12V12.2021Z" fill="#161616"/>
<path d="M10 12.2021H9V16.2021H10V12.2021Z" fill="#161616"/>
<path d="M18 12.2021H17V15.2021H18V12.2021Z" fill="#161616"/>
<path d="M15 16.2021H14C13.7348 16.2021 13.4804 16.0968 13.2929 15.9093C13.1054 15.7217 13 15.4674 13 15.2021V13.2021C13 12.9369 13.1054 12.6826 13.2929 12.495C13.4804 12.3075 13.7348 12.2021 14 12.2021H15C15.2652 12.2021 15.5196 12.3075 15.7071 12.495C15.8946 12.6826 16 12.9369 16 13.2021V15.2021C16 15.4674 15.8946 15.7217 15.7071 15.9093C15.5196 16.0968 15.2652 16.2021 15 16.2021ZM14 15.2021H15V13.2021H14V15.2021Z" fill="#161616"/>
<path d="M10 17.2021H9V21.2021H10V17.2021Z" fill="#161616"/>
<path d="M16 17.2021H15V19.2021H16V17.2021Z" fill="#161616"/>
<path d="M13 21.2021H12C11.7348 21.2021 11.4804 21.0968 11.2929 20.9093C11.1054 20.7217 11 20.4674 11 20.2021V18.2021C11 17.9369 11.1054 17.6826 11.2929 17.495C11.4804 17.3075 11.7348 17.2021 12 17.2021H13C13.2652 17.2021 13.5196 17.3075 13.7071 17.495C13.8946 17.6826 14 17.9369 14 18.2021V20.2021C14 20.4674 13.8946 20.7217 13.7071 20.9093C13.5196 21.0968 13.2652 21.2021 13 21.2021ZM12 20.2021H13V18.2021H12V20.2021Z" fill="#161616"/>
<path d="M10 9.20215H9V11.2021H10V9.20215Z" fill="#161616"/>
<path d="M16 9.20215H15V11.2021H16V9.20215Z" fill="#161616"/>
<path d="M18 9.20215H17V11.2021H18V9.20215Z" fill="#161616"/>
<path d="M13 11.2021H12C11.7348 11.2021 11.4804 11.0968 11.2929 10.9093C11.1054 10.7217 11 10.4674 11 10.2021V9.20215H12V10.2021H13V9.20215H14V10.2021C14 10.4674 13.8946 10.7217 13.7071 10.9093C13.5196 11.0968 13.2652 11.2021 13 11.2021Z" fill="#161616"/>
</svg>
