<svg width="32" height="33" viewBox="0 0 32 33" fill="none" xmlns="http://www.w3.org/2000/svg">
<rect y="0.202148" width="32" height="32" rx="2" fill="#FFD741"/>
<rect width="16" height="16" transform="translate(8 8.20215)" fill="white" fill-opacity="0.01" style="mix-blend-mode:multiply"/>
<path d="M16 21.7021C14.2 21.7021 12.45 20.8021 11.4 19.2021H14V18.2021H10V22.2021H11V20.3521C12.25 21.8521 14.05 22.7021 16 22.7021V21.7021Z" fill="#161616"/>
<path d="M23.5 19.7021V18.7021H22.45C22.4 18.4021 22.25 18.1021 22.1 17.8021L22.85 17.0521L22.15 16.3521L21.4 17.1021C21.15 16.9521 20.85 16.8021 20.5 16.7521V15.7021H19.5V16.7521C19.2 16.8021 18.9 16.9521 18.6 17.1021L17.85 16.3521L17.15 17.0521L17.9 17.8021C17.75 18.0521 17.6 18.3521 17.55 18.7021H16.5V19.7021H17.55C17.6 20.0021 17.75 20.3021 17.9 20.6021L17.15 21.3521L17.85 22.0521L18.6 21.3021C18.85 21.4521 19.15 21.6021 19.5 21.6521V22.7021H20.5V21.6521C20.8 21.6021 21.1 21.4521 21.4 21.3021L22.15 22.0521L22.85 21.3521L22.1 20.6021C22.25 20.3521 22.4 20.0521 22.45 19.7021H23.5ZM20 20.7021C19.15 20.7021 18.5 20.0521 18.5 19.2021C18.5 18.3521 19.15 17.7021 20 17.7021C20.85 17.7021 21.5 18.3521 21.5 19.2021C21.5 20.0521 20.85 20.7021 20 20.7021Z" fill="#161616"/>
<path d="M18 13.2021H20.6C18.95 10.6521 15.55 9.95215 13 11.6021C11.45 12.6021 10.5 14.3521 10.5 16.2021H9.5C9.5 12.6021 12.4 9.70215 16 9.70215C17.95 9.70215 19.75 10.5521 21 12.0521V10.2021H22V14.2021H18V13.2021Z" fill="#161616"/>
</svg>
