<svg width="32" height="32" viewBox="0 0 32 32" fill="none" xmlns="http://www.w3.org/2000/svg">
<rect width="32" height="32" rx="2" fill="#FFD741"/>
<rect width="16" height="16" transform="translate(8 8)" fill="white" fill-opacity="0.01" style="mix-blend-mode:multiply"/>
<path d="M13.9499 10.3683C13.2874 10.6102 12.6815 10.9683 12.1508 11.413L11.5093 10.6486C12.1285 10.1297 12.8354 9.71195 13.6083 9.42965L13.9499 10.3683ZM9.95013 12.5072C9.54578 13.2005 9.25818 13.9685 9.11133 14.7853L10.1032 14.9602C10.2291 14.2606 10.4679 13.6 10.8143 13.0062L9.95013 12.5072ZM10.0963 17.0409L9.11238 17.2144C9.25628 18.0322 9.54253 18.8016 9.94413 19.4961L10.8092 18.9967C10.465 18.4014 10.2196 17.7419 10.0963 17.0409ZM12.1529 20.5843L11.5064 21.3548C12.1247 21.8758 12.8342 22.2909 13.6068 22.5745L13.9497 21.6322C13.2892 21.3877 12.6826 21.0307 12.1529 20.5843ZM22.887 14.7856C22.7431 13.9677 22.4569 13.1983 22.0553 12.5038C21.646 11.796 21.1144 11.1688 20.493 10.6452C19.8747 10.1242 19.1651 9.70915 18.3926 9.42555C17.6461 9.15145 16.8409 9 15.9997 9V10C16.7212 10 17.4107 10.1313 18.0497 10.3678C18.7102 10.6123 19.3168 10.9693 19.8464 11.4156C20.0758 11.609 20.2885 11.8208 20.4881 12.0443C20.7505 12.341 20.9874 12.6604 21.1872 13.005C21.5323 13.6002 21.7786 14.2592 21.9025 14.9591C21.9625 15.298 21.9997 15.6445 21.9997 16C21.9997 16.3561 21.9567 16.701 21.8954 17.0396C21.7689 17.7381 21.5293 18.3983 21.182 18.9921C20.8291 19.5955 20.3791 20.1362 19.8458 20.5836C19.3153 21.0286 18.71 21.3872 18.0487 21.6298C17.4078 21.8649 16.7195 22 15.9997 22V23C16.8405 23 17.6436 22.8433 18.3911 22.5703C19.164 22.288 19.8709 21.8703 20.49 21.3514C21.1129 20.8294 21.6379 20.198 22.0492 19.4927C22.4535 18.7995 22.7411 18.0315 22.888 17.2146C22.9589 16.8202 22.9997 16.4152 22.9997 16C22.9997 15.5851 22.9566 15.1808 22.887 14.7856ZM14.3613 15.054L14.8206 14.5948L15.2097 14.2058L14.4999 13.4999L14.1748 13.8251L13.4639 14.5359L12.5994 15.4004L11.9997 16.0001L12.5992 16.5995L13.4638 17.464L14.1747 18.1748L14.4999 18.5L15.2097 17.7941L14.8206 17.4051L14.3613 16.9458L13.8027 16.3873L13.4153 16.0001L13.8028 15.6125L14.3613 15.054ZM17.6381 16.9458L17.1788 17.4051L16.7897 17.7941L17.4995 18.5L17.8247 18.1748L18.5356 17.464L19.4002 16.5995L19.9997 16.0001L19.4 15.4004L18.5355 14.5359L17.8246 13.8251L17.4995 13.4999L16.7897 14.2058L17.1788 14.5948L17.6381 15.054L18.1966 15.6126L18.5842 16.0001L18.1968 16.3873L17.6381 16.9458Z" fill="#161616"/>
</svg>
