<svg width="32" height="32" viewBox="0 0 32 32" fill="none" xmlns="http://www.w3.org/2000/svg">
<rect width="32" height="32" rx="2" fill="#FFD741" style="fill:#FFD741;fill:color(display-p3 1.0000 0.8445 0.2545);fill-opacity:1;"/>
<path d="M21.4602 16.7273L18.6477 13.9148C18.5422 13.8093 18.3992 13.75 18.25 13.75H14.875C14.5766 13.75 14.2905 13.8685 14.0795 14.0795C13.8685 14.2905 13.75 14.5766 13.75 14.875V22.75C13.75 23.0484 13.8685 23.3345 14.0795 23.5455C14.2905 23.7565 14.5766 23.875 14.875 23.875H20.5C20.7984 23.875 21.0845 23.7565 21.2955 23.5455C21.5065 23.3345 21.625 23.0484 21.625 22.75V17.125C21.625 16.9758 21.5657 16.8328 21.4602 16.7273ZM20.267 17.125H18.25V15.1079L20.267 17.125ZM14.875 22.75V14.875H17.125V17.125C17.125 17.4234 17.2435 17.7095 17.4545 17.9205C17.6655 18.1315 17.9516 18.25 18.25 18.25H20.5V22.75H14.875Z" fill="#2E2E2E" style="fill:#2E2E2E;fill:color(display-p3 0.1821 0.1821 0.1821);fill-opacity:1;"/>
<path d="M11.5 22.1875H9.25C8.95174 22.1872 8.66579 22.0685 8.45488 21.8576C8.24398 21.6467 8.12534 21.3608 8.125 21.0625V9.8125C8.12534 9.51424 8.24398 9.22829 8.45488 9.01739C8.66579 8.80648 8.95174 8.68785 9.25 8.6875H13.517C13.6648 8.68709 13.8112 8.71601 13.9478 8.77258C14.0843 8.82915 14.2083 8.91225 14.3125 9.01707L16.233 10.9375H22.75C23.0483 10.9378 23.3342 11.0565 23.5451 11.2674C23.756 11.4783 23.8747 11.7642 23.875 12.0625V16.5625H22.75V12.0625H15.767L13.517 9.8125H9.25V21.0625H11.5V22.1875Z" fill="#2E2E2E" style="fill:#2E2E2E;fill:color(display-p3 0.1821 0.1821 0.1821);fill-opacity:1;"/>
</svg>
