<svg width="32" height="33" viewBox="0 0 32 33" fill="none" xmlns="http://www.w3.org/2000/svg">
<rect y="0.202148" width="32" height="32" rx="2" fill="#FFD741"/>
<rect width="16" height="16" transform="translate(8 8.20215)" fill="white" fill-opacity="0.01" style="mix-blend-mode:multiply"/>
<path d="M11.5 23.2021C11.0055 23.2021 10.5222 23.0555 10.1111 22.7808C9.69995 22.5061 9.37952 22.1157 9.1903 21.6589C9.00108 21.202 8.95157 20.6994 9.04804 20.2144C9.1445 19.7295 9.3826 19.284 9.73223 18.9344C10.0819 18.5848 10.5273 18.3466 11.0123 18.2502C11.4972 18.1537 11.9999 18.2032 12.4567 18.3924C12.9135 18.5817 13.304 18.9021 13.5787 19.3132C13.8534 19.7243 14 20.2077 14 20.7021C13.9992 21.365 13.7356 22.0004 13.2669 22.4691C12.7983 22.9378 12.1628 23.2014 11.5 23.2021ZM11.5 19.2021C11.2033 19.2021 10.9133 19.2901 10.6666 19.4549C10.42 19.6198 10.2277 19.854 10.1142 20.1281C10.0007 20.4022 9.97095 20.7038 10.0288 20.9948C10.0867 21.2858 10.2296 21.553 10.4393 21.7628C10.6491 21.9726 10.9164 22.1154 11.2074 22.1733C11.4983 22.2312 11.7999 22.2015 12.074 22.088C12.3481 21.9744 12.5824 21.7822 12.7472 21.5355C12.912 21.2888 13 20.9988 13 20.7021C12.9996 20.3045 12.8414 19.9232 12.5602 19.642C12.279 19.3608 11.8977 19.2026 11.5 19.2021Z" fill="#161616"/>
<path d="M19.5 23.2021C19.0055 23.2021 18.5222 23.0555 18.1111 22.7808C17.7 22.5061 17.3795 22.1157 17.1903 21.6589C17.0011 21.202 16.9516 20.6994 17.048 20.2144C17.1445 19.7295 17.3826 19.284 17.7322 18.9344C18.0819 18.5848 18.5273 18.3466 19.0123 18.2502C19.4972 18.1537 19.9999 18.2032 20.4567 18.3924C20.9135 18.5817 21.304 18.9021 21.5787 19.3132C21.8534 19.7243 22 20.2077 22 20.7021C21.9992 21.365 21.7356 22.0004 21.2669 22.4691C20.7983 22.9378 20.1628 23.2014 19.5 23.2021ZM19.5 19.2021C19.2033 19.2021 18.9133 19.2901 18.6666 19.4549C18.42 19.6198 18.2277 19.854 18.1142 20.1281C18.0007 20.4022 17.9709 20.7038 18.0288 20.9948C18.0867 21.2858 18.2296 21.553 18.4393 21.7628C18.6491 21.9726 18.9164 22.1154 19.2074 22.1733C19.4983 22.2312 19.7999 22.2015 20.074 22.088C20.3481 21.9744 20.5824 21.7822 20.7472 21.5355C20.912 21.2888 21 20.9988 21 20.7021C20.9996 20.3045 20.8414 19.9232 20.5602 19.642C20.279 19.3608 19.8977 19.2026 19.5 19.2021Z" fill="#161616"/>
<path d="M20 11.7021V15.2021L21.793 13.4951L22.5 14.2021L19.5 17.2021L16.5 14.2021L17.2071 13.4951L19 15.2021V11.7021C18.9999 11.5696 18.9472 11.4425 18.8534 11.3487C18.7597 11.255 18.6326 11.2023 18.5 11.2021H12.5C12.3674 11.2022 12.2403 11.2549 12.1465 11.3487C12.0528 11.4424 12.0001 11.5696 12 11.7021V17.2021H11V11.7021C11.0004 11.3045 11.1586 10.9232 11.4398 10.642C11.721 10.3608 12.1023 10.2026 12.5 10.2021H18.5C18.8977 10.2026 19.279 10.3608 19.5602 10.642C19.8414 10.9232 19.9996 11.3045 20 11.7021Z" fill="#161616"/>
</svg>
