<svg width="32" height="32" viewBox="0 0 32 32" fill="none" xmlns="http://www.w3.org/2000/svg">
<rect width="32" height="32" rx="2" fill="#FFD741"/>
<rect width="16" height="16" transform="translate(8 8)" fill="white" fill-opacity="0.01" style="mix-blend-mode:multiply"/>
<path d="M21 13.5H17V14.5H21V13.5Z" fill="#161616"/>
<path d="M15 17.5H11V18.5H15V17.5Z" fill="#161616"/>
<path d="M13 16C12.6044 16 12.2178 15.8827 11.8889 15.6629C11.56 15.4432 11.3036 15.1308 11.1522 14.7654C11.0009 14.3999 10.9613 13.9978 11.0384 13.6098C11.1156 13.2219 11.3061 12.8655 11.5858 12.5858C11.8655 12.3061 12.2219 12.1156 12.6098 12.0384C12.9978 11.9613 13.3999 12.0009 13.7654 12.1522C14.1308 12.3036 14.4432 12.56 14.6629 12.8889C14.8827 13.2178 15 13.6044 15 14C14.9994 14.5303 14.7885 15.0386 14.4136 15.4136C14.0386 15.7885 13.5303 15.9994 13 16ZM13 13C12.8022 13 12.6089 13.0586 12.4444 13.1685C12.28 13.2784 12.1518 13.4346 12.0761 13.6173C12.0004 13.8 11.9806 14.0011 12.0192 14.1951C12.0578 14.3891 12.153 14.5673 12.2929 14.7071C12.4327 14.847 12.6109 14.9422 12.8049 14.9808C12.9989 15.0194 13.2 14.9996 13.3827 14.9239C13.5654 14.8482 13.7216 14.72 13.8315 14.5556C13.9414 14.3911 14 14.1978 14 14C13.9997 13.7349 13.8943 13.4807 13.7068 13.2932C13.5193 13.1057 13.2651 13.0003 13 13Z" fill="#161616"/>
<path d="M19 20C18.6044 20 18.2178 19.8827 17.8889 19.6629C17.56 19.4432 17.3036 19.1308 17.1522 18.7654C17.0009 18.3999 16.9613 17.9978 17.0384 17.6098C17.1156 17.2219 17.3061 16.8655 17.5858 16.5858C17.8655 16.3061 18.2219 16.1156 18.6098 16.0384C18.9978 15.9613 19.3999 16.0009 19.7654 16.1522C20.1308 16.3036 20.4432 16.56 20.6629 16.8889C20.8827 17.2178 21 17.6044 21 18C20.9994 18.5303 20.7885 19.0386 20.4136 19.4136C20.0386 19.7885 19.5303 19.9994 19 20ZM19 17C18.8022 17 18.6089 17.0586 18.4444 17.1685C18.28 17.2784 18.1518 17.4346 18.0761 17.6173C18.0004 17.8 17.9806 18.0011 18.0192 18.1951C18.0578 18.3891 18.153 18.5673 18.2929 18.7071C18.4327 18.847 18.6109 18.9422 18.8049 18.9808C18.9989 19.0194 19.2 18.9996 19.3827 18.9239C19.5654 18.8482 19.7216 18.72 19.8315 18.5556C19.9414 18.3911 20 18.1978 20 18C19.9997 17.7349 19.8943 17.4807 19.7068 17.2932C19.5193 17.1057 19.2651 17.0003 19 17Z" fill="#161616"/>
<path d="M22 23H10C9.73487 22.9997 9.48068 22.8943 9.2932 22.7068C9.10572 22.5193 9.00028 22.2651 9 22V10C9.00028 9.73487 9.10572 9.48068 9.2932 9.2932C9.48068 9.10572 9.73487 9.00028 10 9H22C22.2651 9.00028 22.5193 9.10572 22.7068 9.2932C22.8943 9.48068 22.9997 9.73487 23 10V22C22.9997 22.2651 22.8943 22.5193 22.7068 22.7068C22.5193 22.8943 22.2651 22.9997 22 23ZM10 10V22H22V10H10Z" fill="#161616"/>
</svg>
