<svg width="48" height="48" viewBox="0 0 48 48" fill="none" xmlns="http://www.w3.org/2000/svg">
<rect width="48" height="48" rx="4" fill="#FFD741"/>
<rect width="32" height="32" transform="translate(8 8)" fill="white" fill-opacity="0.01" style="mix-blend-mode:multiply"/>
<path d="M37.9999 14H33.9999V10H31.9999V14H27.9999V16H31.9999V20H33.9999V16H37.9999V14Z" fill="#161616"/>
<path d="M31.9999 36.5859L26.0248 30.6108C27.4649 28.8092 28.1605 26.5245 27.9687 24.226C27.7768 21.9275 26.712 19.7898 24.9931 18.2519C23.2742 16.714 21.0316 15.8927 18.7261 15.9567C16.4205 16.0207 14.2269 16.9652 12.596 18.5961C10.9651 20.2271 10.0206 22.4206 9.95661 24.7262C9.89258 27.0318 10.7139 29.2743 12.2518 30.9932C13.7897 32.7122 15.9274 33.7769 18.2259 33.9688C20.5244 34.1606 22.8091 33.465 24.6107 32.0249L30.5858 38L31.9999 36.5859ZM11.9999 25C11.9999 23.6155 12.4104 22.2622 13.1796 21.111C13.9488 19.9599 15.042 19.0627 16.3211 18.5328C17.6002 18.003 19.0077 17.8644 20.3655 18.1345C21.7234 18.4046 22.9707 19.0713 23.9496 20.0503C24.9286 21.0292 25.5953 22.2765 25.8654 23.6344C26.1355 24.9922 25.9969 26.3997 25.467 27.6788C24.9372 28.9579 24.04 30.0511 22.8889 30.8203C21.7377 31.5895 20.3844 32 18.9999 32C17.144 31.9979 15.3647 31.2598 14.0524 29.9475C12.7401 28.6352 12.002 26.8559 11.9999 25Z" fill="#161616"/>
</svg>
