<svg width="48" height="48" viewBox="0 0 48 48" fill="none" xmlns="http://www.w3.org/2000/svg">
<rect width="48" height="48" rx="4" fill="#FFD741"/>
<rect width="32" height="32" transform="translate(8 8)" fill="white" fill-opacity="0.01" style="mix-blend-mode:multiply"/>
<path d="M35.4 22.7L29.3 16.6C29 16.2 28.5 16 28 16H20C18.9 16 18 16.9 18 18V36C18 37.1 18.9 38 20 38H34C35.1 38 36 37.1 36 36V24.1C36 23.6 35.8 23.1 35.4 22.7ZM28 18L33.9 24H28V18ZM20 36V18H26V24C26 25.1 26.9 26 28 26H34V36H20Z" fill="#161616"/>
<path d="M14 26H12V12C12 10.9 12.9 10 14 10H28V12H14V26Z" fill="#161616"/>
</svg>
