<svg width="48" height="48" viewBox="0 0 48 48" fill="none" xmlns="http://www.w3.org/2000/svg">
<rect width="48" height="48" rx="4" fill="#FFD741"/>
<rect width="32" height="32" transform="translate(8 8)" fill="white" fill-opacity="0.01" style="mix-blend-mode:multiply"/>
<path d="M28.17 27L25.58 29.59L27 31L31 27L27 23L25.58 24.41L28.17 27Z" fill="#161616"/>
<path d="M19.83 27L22.42 24.41L21 23L17 27L21 31L22.42 29.59L19.83 27Z" fill="#161616"/>
<path d="M17 17C17.5523 17 18 16.5523 18 16C18 15.4477 17.5523 15 17 15C16.4477 15 16 15.4477 16 16C16 16.5523 16.4477 17 17 17Z" fill="#161616"/>
<path d="M14 17C14.5523 17 15 16.5523 15 16C15 15.4477 14.5523 15 14 15C13.4477 15 13 15.4477 13 16C13 16.5523 13.4477 17 14 17Z" fill="#161616"/>
<path d="M36 12H12C10.8972 12 10 12.8975 10 14V34C10 35.1025 10.8972 36 12 36H36C37.1028 36 38 35.1025 38 34V14C38 12.8975 37.1028 12 36 12ZM36 14V18H12V14H36ZM12 34V20H36V34H12Z" fill="#161616"/>
</svg>
