<svg width="48" height="48" viewBox="0 0 48 48" fill="none" xmlns="http://www.w3.org/2000/svg">
<rect width="48" height="48" rx="4" fill="#FFD741"/>
<rect width="32" height="32" transform="translate(8 8)" fill="white" fill-opacity="0.01" style="mix-blend-mode:multiply"/>
<path d="M36 16H24L20.5857 12.5857C20.2106 12.2107 19.702 12 19.1716 12H12C11.4696 12 10.9609 12.2107 10.5858 12.5858C10.2107 12.9609 10 13.4696 10 14V34C10 34.5304 10.2107 35.0391 10.5858 35.4142C10.9609 35.7893 11.4696 36 12 36H24C24.5304 36 25.0391 35.7893 25.4142 35.4142C25.7893 35.0391 26 34.5304 26 34V24.83L28.59 27.41L30 26L25 21L20 26L21.41 27.41L24 24.83V34H12V14H19.1716L23.1716 18H36V34H30V36H36C36.5304 36 37.0391 35.7893 37.4142 35.4142C37.7893 35.0391 38 34.5304 38 34V18C38 17.4696 37.7893 16.9609 37.4142 16.5858C37.0391 16.2107 36.5304 16 36 16Z" fill="#161616"/>
</svg>
