<svg width="48" height="48" viewBox="0 0 48 48" fill="none" xmlns="http://www.w3.org/2000/svg">
<rect width="48" height="48" rx="4" fill="#FFD741"/>
<rect width="32" height="32" transform="translate(8 8)" fill="white" fill-opacity="0.01" style="mix-blend-mode:multiply"/>
<path d="M38 36.5859L33.3115 31.8975C34.5646 30.2846 35.1559 28.2548 34.9649 26.2213C34.7739 24.1878 33.815 22.3036 32.2834 20.9523C30.7519 19.601 28.7629 18.8842 26.7215 18.948C24.68 19.0117 22.7396 19.8512 21.2954 21.2954C19.8512 22.7396 19.0117 24.68 18.948 26.7215C18.8842 28.7629 19.601 30.7519 20.9523 32.2834C22.3036 33.815 24.1878 34.7739 26.2213 34.9649C28.2548 35.1559 30.2846 34.5646 31.8975 33.3115L36.5859 38L38 36.5859ZM27 33C25.8133 33 24.6533 32.6481 23.6666 31.9888C22.6799 31.3295 21.9108 30.3925 21.4567 29.2961C21.0026 28.1997 20.8838 26.9933 21.1153 25.8295C21.3468 24.6656 21.9182 23.5965 22.7574 22.7574C23.5965 21.9182 24.6656 21.3468 25.8295 21.1153C26.9933 20.8838 28.1997 21.0026 29.2961 21.4567C30.3925 21.9108 31.3295 22.6799 31.9888 23.6666C32.6481 24.6533 33 25.8133 33 27C32.9983 28.5908 32.3656 30.1159 31.2407 31.2407C30.1159 32.3656 28.5908 32.9983 27 33Z" fill="#161616"/>
<path d="M18 20H10V22H18V20Z" fill="#161616"/>
<path d="M26 10H10V12H26V10Z" fill="#161616"/>
<path d="M26 15H10V17H26V15Z" fill="#161616"/>
</svg>
