<svg width="48" height="48" viewBox="0 0 48 48" fill="none" xmlns="http://www.w3.org/2000/svg">
<rect width="48" height="48" rx="4" fill="#FFD741"/>
<rect width="32" height="32" transform="translate(8 8)" fill="white" fill-opacity="0.01" style="mix-blend-mode:multiply"/>
<path d="M36 14H26V12C26 11.4696 25.7893 10.9609 25.4142 10.5858C25.0391 10.2107 24.5304 10 24 10H12C11.4696 10 10.9609 10.2107 10.5858 10.5858C10.2107 10.9609 10 11.4696 10 12V32C10 32.5304 10.2107 33.0391 10.5858 33.4142C10.9609 33.7893 11.4696 34 12 34H22V36C22 36.5304 22.2107 37.0391 22.5858 37.4142C22.9609 37.7893 23.4696 38 24 38H36C36.5304 38 37.0391 37.7893 37.4142 37.4142C37.7893 37.0391 38 36.5304 38 36V16C38 15.4696 37.7893 14.9609 37.4142 14.5858C37.0391 14.2107 36.5304 14 36 14ZM12 23H18.17L15.59 25.59L17 27L22 22L17 17L15.59 18.41L18.17 21H12V12H24V32H12V23ZM24 36V34C24.5304 34 25.0391 33.7893 25.4142 33.4142C25.7893 33.0391 26 32.5304 26 32V16H36V25H29.83L32.41 22.41L31 21L26 26L31 31L32.41 29.59L29.83 27H36V36H24Z" fill="#161616"/>
</svg>
